<mxfile host="app.diagrams.net" modified="2023-09-28T20:55:08.754Z" agent="Mozilla/5.0 (Macintosh; Intel Mac OS X 10_15_7) AppleWebKit/537.36 (KHTML, like Gecko) Chrome/117.0.0.0 Safari/537.36" etag="On9hW3kakACf2njDi0oB" version="21.8.2" type="github" pages="4">
  <diagram name="Page-1" id="KidXkv7oJhavkl97Mi1U">
    <mxGraphModel dx="1194" dy="694" grid="1" gridSize="10" guides="1" tooltips="1" connect="1" arrows="1" fold="1" page="1" pageScale="1" pageWidth="850" pageHeight="1100" math="0" shadow="0">
      <root>
        <mxCell id="0" />
        <mxCell id="1" parent="0" />
        <mxCell id="fGQv9GPus6uukMGEWmkT-2" value="" style="rounded=0;whiteSpace=wrap;html=1;" parent="1" vertex="1">
          <mxGeometry x="120" y="120" width="600" height="360" as="geometry" />
        </mxCell>
        <mxCell id="fGQv9GPus6uukMGEWmkT-3" value="" style="rounded=0;whiteSpace=wrap;html=1;fillColor=#f5f5f5;fontColor=#333333;strokeColor=#666666;" parent="1" vertex="1">
          <mxGeometry x="120" y="120" width="600" height="60" as="geometry" />
        </mxCell>
        <mxCell id="fGQv9GPus6uukMGEWmkT-4" value="" style="rounded=0;whiteSpace=wrap;html=1;fillColor=#d5e8d4;strokeColor=#82b366;" parent="1" vertex="1">
          <mxGeometry x="120" y="380" width="600" height="100" as="geometry" />
        </mxCell>
        <mxCell id="fGQv9GPus6uukMGEWmkT-5" value="" style="rounded=0;whiteSpace=wrap;html=1;" parent="1" vertex="1">
          <mxGeometry x="120" y="560" width="600" height="360" as="geometry" />
        </mxCell>
        <mxCell id="fGQv9GPus6uukMGEWmkT-6" value="" style="rounded=1;whiteSpace=wrap;html=1;" parent="1" vertex="1">
          <mxGeometry x="120" y="770" width="120" height="20" as="geometry" />
        </mxCell>
        <mxCell id="fGQv9GPus6uukMGEWmkT-7" value="" style="rounded=1;whiteSpace=wrap;html=1;rotation=90;" parent="1" vertex="1">
          <mxGeometry x="220" y="850" width="120" height="20" as="geometry" />
        </mxCell>
        <mxCell id="fGQv9GPus6uukMGEWmkT-8" value="" style="rounded=1;whiteSpace=wrap;html=1;" parent="1" vertex="1">
          <mxGeometry x="600" y="810" width="120" height="20" as="geometry" />
        </mxCell>
        <mxCell id="fGQv9GPus6uukMGEWmkT-9" value="" style="rounded=1;whiteSpace=wrap;html=1;" parent="1" vertex="1">
          <mxGeometry x="330" y="770" width="120" height="20" as="geometry" />
        </mxCell>
        <mxCell id="fGQv9GPus6uukMGEWmkT-10" value="" style="rounded=1;whiteSpace=wrap;html=1;rotation=90;" parent="1" vertex="1">
          <mxGeometry x="310" y="610" width="120" height="20" as="geometry" />
        </mxCell>
        <mxCell id="fGQv9GPus6uukMGEWmkT-11" value="" style="rounded=1;whiteSpace=wrap;html=1;" parent="1" vertex="1">
          <mxGeometry x="440" y="700" width="120" height="20" as="geometry" />
        </mxCell>
        <mxCell id="fGQv9GPus6uukMGEWmkT-12" value="" style="rounded=1;whiteSpace=wrap;html=1;" parent="1" vertex="1">
          <mxGeometry x="600" y="640" width="120" height="20" as="geometry" />
        </mxCell>
        <mxCell id="ZAa_5BEVYzG6tmix2jrW-1" value="Lost In Limbo" style="rounded=1;whiteSpace=wrap;html=1;" parent="1" vertex="1">
          <mxGeometry x="360" y="250" width="120" height="60" as="geometry" />
        </mxCell>
        <mxCell id="ZAa_5BEVYzG6tmix2jrW-2" value="" style="shape=sumEllipse;perimeter=ellipsePerimeter;whiteSpace=wrap;html=1;backgroundOutline=1;" parent="1" vertex="1">
          <mxGeometry x="351" y="242" width="20" height="20" as="geometry" />
        </mxCell>
        <mxCell id="ZAa_5BEVYzG6tmix2jrW-3" value="" style="shape=sumEllipse;perimeter=ellipsePerimeter;whiteSpace=wrap;html=1;backgroundOutline=1;" parent="1" vertex="1">
          <mxGeometry x="351" y="300" width="20" height="20" as="geometry" />
        </mxCell>
        <mxCell id="ZAa_5BEVYzG6tmix2jrW-4" value="" style="shape=sumEllipse;perimeter=ellipsePerimeter;whiteSpace=wrap;html=1;backgroundOutline=1;" parent="1" vertex="1">
          <mxGeometry x="470" y="300" width="20" height="20" as="geometry" />
        </mxCell>
        <mxCell id="ZAa_5BEVYzG6tmix2jrW-5" value="" style="shape=sumEllipse;perimeter=ellipsePerimeter;whiteSpace=wrap;html=1;backgroundOutline=1;" parent="1" vertex="1">
          <mxGeometry x="468" y="242" width="20" height="20" as="geometry" />
        </mxCell>
        <mxCell id="SdukqrXWfb836VQ92CyD-2" value="" style="endArrow=classic;html=1;rounded=0;endFill=1;" parent="1" edge="1">
          <mxGeometry width="50" height="50" relative="1" as="geometry">
            <mxPoint x="560" y="279.5" as="sourcePoint" />
            <mxPoint x="620" y="279.5" as="targetPoint" />
          </mxGeometry>
        </mxCell>
        <mxCell id="SdukqrXWfb836VQ92CyD-3" value="" style="endArrow=classic;html=1;rounded=0;endFill=1;" parent="1" edge="1">
          <mxGeometry width="50" height="50" relative="1" as="geometry">
            <mxPoint x="280" y="279.5" as="sourcePoint" />
            <mxPoint x="220" y="279.5" as="targetPoint" />
          </mxGeometry>
        </mxCell>
      </root>
    </mxGraphModel>
  </diagram>
  <diagram id="aUzgIIEypdi6rsdhv6p6" name="Page-2">
    <mxGraphModel dx="1194" dy="694" grid="1" gridSize="10" guides="1" tooltips="1" connect="1" arrows="1" fold="1" page="1" pageScale="1" pageWidth="850" pageHeight="1100" math="0" shadow="0">
      <root>
        <mxCell id="0" />
        <mxCell id="1" parent="0" />
        <mxCell id="VH3QujbzPuQn74hImEhM-1" value="" style="rounded=0;whiteSpace=wrap;html=1;" parent="1" vertex="1">
          <mxGeometry x="120" y="80" width="600" height="360" as="geometry" />
        </mxCell>
        <mxCell id="t_jB42auzcK4Gs7q48QZ-1" value="" style="rounded=1;whiteSpace=wrap;html=1;" parent="1" vertex="1">
          <mxGeometry x="120" y="130" width="120" height="20" as="geometry" />
        </mxCell>
        <mxCell id="t_jB42auzcK4Gs7q48QZ-2" value="" style="rounded=1;whiteSpace=wrap;html=1;rotation=90;" parent="1" vertex="1">
          <mxGeometry x="250" y="130" width="120" height="20" as="geometry" />
        </mxCell>
        <mxCell id="t_jB42auzcK4Gs7q48QZ-3" value="" style="rounded=1;whiteSpace=wrap;html=1;rotation=90;" parent="1" vertex="1">
          <mxGeometry x="250" y="250" width="120" height="20" as="geometry" />
        </mxCell>
        <mxCell id="t_jB42auzcK4Gs7q48QZ-4" value="" style="rounded=1;whiteSpace=wrap;html=1;" parent="1" vertex="1">
          <mxGeometry x="320" y="260" width="120" height="20" as="geometry" />
        </mxCell>
        <mxCell id="t_jB42auzcK4Gs7q48QZ-5" value="" style="rounded=1;whiteSpace=wrap;html=1;" parent="1" vertex="1">
          <mxGeometry x="200" y="380" width="120" height="20" as="geometry" />
        </mxCell>
        <mxCell id="t_jB42auzcK4Gs7q48QZ-6" value="" style="rounded=1;whiteSpace=wrap;html=1;rotation=90;" parent="1" vertex="1">
          <mxGeometry x="400" y="130" width="120" height="20" as="geometry" />
        </mxCell>
        <mxCell id="t_jB42auzcK4Gs7q48QZ-7" value="" style="rounded=1;whiteSpace=wrap;html=1;" parent="1" vertex="1">
          <mxGeometry x="500" y="330" width="120" height="20" as="geometry" />
        </mxCell>
        <mxCell id="t_jB42auzcK4Gs7q48QZ-8" value="" style="rounded=1;whiteSpace=wrap;html=1;" parent="1" vertex="1">
          <mxGeometry x="500" y="160" width="120" height="20" as="geometry" />
        </mxCell>
        <mxCell id="t_jB42auzcK4Gs7q48QZ-9" value="" style="rounded=1;whiteSpace=wrap;html=1;" parent="1" vertex="1">
          <mxGeometry x="600" y="250" width="120" height="20" as="geometry" />
        </mxCell>
        <mxCell id="t_jB42auzcK4Gs7q48QZ-10" value="" style="rounded=1;whiteSpace=wrap;html=1;" parent="1" vertex="1">
          <mxGeometry x="370" y="370" width="120" height="20" as="geometry" />
        </mxCell>
        <mxCell id="o4VR7nBxe_-jrO-VEvXx-1" value="" style="rounded=1;whiteSpace=wrap;html=1;" parent="1" vertex="1">
          <mxGeometry x="180" y="230" width="120" height="20" as="geometry" />
        </mxCell>
        <mxCell id="o4VR7nBxe_-jrO-VEvXx-2" value="" style="rounded=1;whiteSpace=wrap;html=1;" parent="1" vertex="1">
          <mxGeometry x="120" y="310" width="120" height="20" as="geometry" />
        </mxCell>
        <mxCell id="d-8KAoDTQggidmpcTDR5-1" value="" style="rounded=0;whiteSpace=wrap;html=1;" parent="1" vertex="1">
          <mxGeometry x="120" y="520" width="600" height="360" as="geometry" />
        </mxCell>
        <mxCell id="d-8KAoDTQggidmpcTDR5-2" value="" style="rounded=1;whiteSpace=wrap;html=1;" parent="1" vertex="1">
          <mxGeometry x="120" y="650" width="120" height="20" as="geometry" />
        </mxCell>
        <mxCell id="d-8KAoDTQggidmpcTDR5-3" value="" style="rounded=1;whiteSpace=wrap;html=1;" parent="1" vertex="1">
          <mxGeometry x="480" y="620" width="120" height="20" as="geometry" />
        </mxCell>
        <mxCell id="d-8KAoDTQggidmpcTDR5-4" value="" style="rounded=1;whiteSpace=wrap;html=1;rotation=90;" parent="1" vertex="1">
          <mxGeometry x="470" y="810" width="120" height="20" as="geometry" />
        </mxCell>
        <mxCell id="d-8KAoDTQggidmpcTDR5-5" value="" style="rounded=1;whiteSpace=wrap;html=1;rotation=90;" parent="1" vertex="1">
          <mxGeometry x="250" y="570" width="120" height="20" as="geometry" />
        </mxCell>
        <mxCell id="d-8KAoDTQggidmpcTDR5-6" value="" style="rounded=1;whiteSpace=wrap;html=1;" parent="1" vertex="1">
          <mxGeometry x="600" y="730" width="120" height="20" as="geometry" />
        </mxCell>
        <mxCell id="d-8KAoDTQggidmpcTDR5-7" value="" style="rounded=1;whiteSpace=wrap;html=1;" parent="1" vertex="1">
          <mxGeometry x="330" y="710" width="120" height="20" as="geometry" />
        </mxCell>
        <mxCell id="d-8KAoDTQggidmpcTDR5-8" value="" style="rounded=1;whiteSpace=wrap;html=1;" parent="1" vertex="1">
          <mxGeometry x="200" y="780" width="120" height="20" as="geometry" />
        </mxCell>
        <mxCell id="0V_EiS-AOG2dwNwSghKs-1" value="" style="shape=trapezoid;perimeter=trapezoidPerimeter;whiteSpace=wrap;html=1;fixedSize=1;fillColor=#f5f5f5;strokeColor=#666666;fontColor=#333333;" parent="1" vertex="1">
          <mxGeometry x="320" y="200" width="120" height="60" as="geometry" />
        </mxCell>
        <mxCell id="cs3V_kxPe8xAavH3Tn7P-13" value="" style="group" parent="1" vertex="1" connectable="0">
          <mxGeometry x="360" y="180" width="40" height="20" as="geometry" />
        </mxCell>
        <mxCell id="cs3V_kxPe8xAavH3Tn7P-4" value="" style="shape=delay;whiteSpace=wrap;html=1;container=0;fillColor=#FFE6CC;" parent="cs3V_kxPe8xAavH3Tn7P-13" vertex="1">
          <mxGeometry width="40" height="20" as="geometry" />
        </mxCell>
        <mxCell id="cs3V_kxPe8xAavH3Tn7P-5" value="" style="shape=delay;whiteSpace=wrap;html=1;container=0;fillColor=#FFE6CC;" parent="cs3V_kxPe8xAavH3Tn7P-13" vertex="1">
          <mxGeometry y="5" width="40" height="15" as="geometry" />
        </mxCell>
        <mxCell id="cs3V_kxPe8xAavH3Tn7P-6" value="" style="shape=delay;whiteSpace=wrap;html=1;container=0;fillColor=#000000;gradientColor=none;opacity=50;" parent="cs3V_kxPe8xAavH3Tn7P-13" vertex="1">
          <mxGeometry y="10" width="35" height="5" as="geometry" />
        </mxCell>
      </root>
    </mxGraphModel>
  </diagram>
  <diagram id="PZwUfpPZIwO6w6TJcOm0" name="Page-3">
    <mxGraphModel dx="1194" dy="694" grid="1" gridSize="10" guides="1" tooltips="1" connect="1" arrows="1" fold="1" page="1" pageScale="1" pageWidth="850" pageHeight="1100" math="0" shadow="0">
      <root>
        <mxCell id="0" />
        <mxCell id="1" parent="0" />
        <mxCell id="Fde2z-bL75Jt_c63599Y-1" value="" style="rounded=0;whiteSpace=wrap;html=1;" parent="1" vertex="1">
          <mxGeometry x="120" y="80" width="600" height="360" as="geometry" />
        </mxCell>
        <mxCell id="Fde2z-bL75Jt_c63599Y-2" value="" style="rounded=0;whiteSpace=wrap;html=1;" parent="1" vertex="1">
          <mxGeometry x="120" y="520" width="600" height="360" as="geometry" />
        </mxCell>
        <mxCell id="Fde2z-bL75Jt_c63599Y-3" value="" style="rounded=1;whiteSpace=wrap;html=1;" parent="1" vertex="1">
          <mxGeometry x="120" y="300" width="120" height="20" as="geometry" />
        </mxCell>
        <mxCell id="a0jjxSh1gyqNo_s4mgn6-1" value="" style="rounded=1;whiteSpace=wrap;html=1;" parent="1" vertex="1">
          <mxGeometry x="320" y="300" width="120" height="20" as="geometry" />
        </mxCell>
        <mxCell id="a0jjxSh1gyqNo_s4mgn6-2" value="" style="rounded=1;whiteSpace=wrap;html=1;rotation=90;" parent="1" vertex="1">
          <mxGeometry x="270" y="230" width="120" height="20" as="geometry" />
        </mxCell>
        <mxCell id="a0jjxSh1gyqNo_s4mgn6-3" value="" style="rounded=1;whiteSpace=wrap;html=1;rotation=90;" parent="1" vertex="1">
          <mxGeometry x="170" y="370" width="120" height="20" as="geometry" />
        </mxCell>
        <mxCell id="a0jjxSh1gyqNo_s4mgn6-4" value="" style="rounded=1;whiteSpace=wrap;html=1;rotation=90;" parent="1" vertex="1">
          <mxGeometry x="510" y="130" width="120" height="20" as="geometry" />
        </mxCell>
        <mxCell id="a0jjxSh1gyqNo_s4mgn6-5" value="" style="rounded=1;whiteSpace=wrap;html=1;" parent="1" vertex="1">
          <mxGeometry x="440" y="180" width="120" height="20" as="geometry" />
        </mxCell>
        <mxCell id="a0jjxSh1gyqNo_s4mgn6-6" value="" style="rounded=1;whiteSpace=wrap;html=1;" parent="1" vertex="1">
          <mxGeometry x="600" y="760" width="120" height="20" as="geometry" />
        </mxCell>
        <mxCell id="a0jjxSh1gyqNo_s4mgn6-7" value="" style="rounded=1;whiteSpace=wrap;html=1;" parent="1" vertex="1">
          <mxGeometry x="510" y="300" width="120" height="20" as="geometry" />
        </mxCell>
        <mxCell id="a0jjxSh1gyqNo_s4mgn6-8" value="" style="rounded=1;whiteSpace=wrap;html=1;rotation=90;" parent="1" vertex="1">
          <mxGeometry x="270" y="370" width="120" height="20" as="geometry" />
        </mxCell>
        <mxCell id="a0jjxSh1gyqNo_s4mgn6-9" value="" style="rounded=1;whiteSpace=wrap;html=1;rotation=90;" parent="1" vertex="1">
          <mxGeometry x="530" y="570" width="120" height="20" as="geometry" />
        </mxCell>
        <mxCell id="a0jjxSh1gyqNo_s4mgn6-10" value="" style="rounded=1;whiteSpace=wrap;html=1;rotation=90;" parent="1" vertex="1">
          <mxGeometry x="270" y="570" width="120" height="20" as="geometry" />
        </mxCell>
        <mxCell id="a0jjxSh1gyqNo_s4mgn6-11" value="" style="rounded=1;whiteSpace=wrap;html=1;" parent="1" vertex="1">
          <mxGeometry x="120" y="180" width="120" height="20" as="geometry" />
        </mxCell>
        <mxCell id="a0jjxSh1gyqNo_s4mgn6-12" value="" style="rounded=1;whiteSpace=wrap;html=1;" parent="1" vertex="1">
          <mxGeometry x="400" y="690" width="120" height="20" as="geometry" />
        </mxCell>
        <mxCell id="a0jjxSh1gyqNo_s4mgn6-13" value="" style="rounded=1;whiteSpace=wrap;html=1;rotation=90;" parent="1" vertex="1">
          <mxGeometry x="170" y="570" width="120" height="20" as="geometry" />
        </mxCell>
        <mxCell id="a0jjxSh1gyqNo_s4mgn6-14" value="" style="rounded=1;whiteSpace=wrap;html=1;" parent="1" vertex="1">
          <mxGeometry x="220" y="750" width="120" height="20" as="geometry" />
        </mxCell>
      </root>
    </mxGraphModel>
  </diagram>
  <diagram id="CJxvSBYdh2yEJW1knCPf" name="Level Map">
    <mxGraphModel dx="10960" dy="6427" grid="1" gridSize="10" guides="1" tooltips="1" connect="1" arrows="1" fold="1" page="1" pageScale="1" pageWidth="1500" pageHeight="900" math="0" shadow="0">
      <root>
        <mxCell id="0" />
        <mxCell id="1" parent="0" />
        <mxCell id="3zr2ZEUHOC_7-df0e1zn-1" value="" style="rounded=0;whiteSpace=wrap;html=1;fillColor=#fff2cc;strokeColor=#d6b656;" vertex="1" parent="1">
          <mxGeometry width="1500" height="900" as="geometry" />
        </mxCell>
        <mxCell id="3zr2ZEUHOC_7-df0e1zn-2" value="" style="rounded=0;whiteSpace=wrap;html=1;fillColor=#fff2cc;strokeColor=#d6b656;" vertex="1" parent="1">
          <mxGeometry x="1500" width="1500" height="900" as="geometry" />
        </mxCell>
        <mxCell id="3zr2ZEUHOC_7-df0e1zn-3" value="" style="rounded=0;whiteSpace=wrap;html=1;fillColor=#fff2cc;strokeColor=#d6b656;" vertex="1" parent="1">
          <mxGeometry x="-1500" width="1500" height="900" as="geometry" />
        </mxCell>
        <mxCell id="3zr2ZEUHOC_7-df0e1zn-4" value="" style="rounded=0;whiteSpace=wrap;html=1;fillColor=#dae8fc;strokeColor=#6c8ebf;" vertex="1" parent="1">
          <mxGeometry x="3000" width="1500" height="900" as="geometry" />
        </mxCell>
        <mxCell id="3zr2ZEUHOC_7-df0e1zn-5" value="" style="rounded=0;whiteSpace=wrap;html=1;fillColor=#f5f5f5;fontColor=#333333;strokeColor=#666666;" vertex="1" parent="1">
          <mxGeometry x="-3000" width="1500" height="900" as="geometry" />
        </mxCell>
        <mxCell id="3zr2ZEUHOC_7-df0e1zn-6" value="" style="rounded=0;whiteSpace=wrap;html=1;fillColor=#f8cecc;strokeColor=#b85450;" vertex="1" parent="1">
          <mxGeometry x="1500" y="900" width="1500" height="900" as="geometry" />
        </mxCell>
        <mxCell id="3zr2ZEUHOC_7-df0e1zn-7" value="" style="rounded=0;whiteSpace=wrap;html=1;fillColor=#f8cecc;strokeColor=#b85450;" vertex="1" parent="1">
          <mxGeometry x="3000" y="900" width="1500" height="900" as="geometry" />
        </mxCell>
        <mxCell id="3zr2ZEUHOC_7-df0e1zn-8" value="" style="rounded=0;whiteSpace=wrap;html=1;fillColor=#f5f5f5;fontColor=#333333;strokeColor=#666666;" vertex="1" parent="1">
          <mxGeometry x="-1500" y="900" width="1500" height="900" as="geometry" />
        </mxCell>
        <mxCell id="3zr2ZEUHOC_7-df0e1zn-9" value="" style="rounded=0;whiteSpace=wrap;html=1;fillColor=#f5f5f5;fontColor=#333333;strokeColor=#666666;" vertex="1" parent="1">
          <mxGeometry x="-3000" y="900" width="1500" height="900" as="geometry" />
        </mxCell>
        <mxCell id="3zr2ZEUHOC_7-df0e1zn-12" value="" style="rounded=0;whiteSpace=wrap;html=1;fillColor=#f5f5f5;fontColor=#333333;strokeColor=#666666;" vertex="1" parent="1">
          <mxGeometry x="-3000" y="1800" width="1500" height="900" as="geometry" />
        </mxCell>
        <mxCell id="3zr2ZEUHOC_7-df0e1zn-13" value="" style="rounded=0;whiteSpace=wrap;html=1;fillColor=#f5f5f5;fontColor=#333333;strokeColor=#666666;" vertex="1" parent="1">
          <mxGeometry x="-1500" y="1800" width="1500" height="900" as="geometry" />
        </mxCell>
        <mxCell id="3zr2ZEUHOC_7-df0e1zn-14" value="" style="rounded=0;whiteSpace=wrap;html=1;fillColor=#f8cecc;strokeColor=#b85450;" vertex="1" parent="1">
          <mxGeometry x="1500" y="1800" width="1500" height="900" as="geometry" />
        </mxCell>
        <mxCell id="3zr2ZEUHOC_7-df0e1zn-15" value="" style="rounded=0;whiteSpace=wrap;html=1;fillColor=#f8cecc;strokeColor=#b85450;" vertex="1" parent="1">
          <mxGeometry x="3000" y="1800" width="1500" height="900" as="geometry" />
        </mxCell>
        <mxCell id="3zr2ZEUHOC_7-df0e1zn-16" value="" style="rounded=0;whiteSpace=wrap;html=1;fillColor=#dae8fc;strokeColor=#6c8ebf;" vertex="1" parent="1">
          <mxGeometry x="1500" y="-1800" width="1500" height="900" as="geometry" />
        </mxCell>
        <mxCell id="3zr2ZEUHOC_7-df0e1zn-17" value="" style="rounded=0;whiteSpace=wrap;html=1;fillColor=#dae8fc;strokeColor=#6c8ebf;" vertex="1" parent="1">
          <mxGeometry x="3000" y="-1800" width="1500" height="900" as="geometry" />
        </mxCell>
        <mxCell id="3zr2ZEUHOC_7-df0e1zn-18" value="" style="rounded=0;whiteSpace=wrap;html=1;fillColor=#d5e8d4;strokeColor=#82b366;" vertex="1" parent="1">
          <mxGeometry x="-1500" y="-1800" width="1500" height="900" as="geometry" />
        </mxCell>
        <mxCell id="3zr2ZEUHOC_7-df0e1zn-19" value="" style="rounded=0;whiteSpace=wrap;html=1;fillColor=#d5e8d4;strokeColor=#82b366;" vertex="1" parent="1">
          <mxGeometry x="-3000" y="-1800" width="1500" height="900" as="geometry" />
        </mxCell>
        <mxCell id="3zr2ZEUHOC_7-df0e1zn-20" value="" style="rounded=0;whiteSpace=wrap;html=1;fillColor=#d5e8d4;strokeColor=#82b366;" vertex="1" parent="1">
          <mxGeometry x="-3000" y="-900" width="1500" height="900" as="geometry" />
        </mxCell>
        <mxCell id="3zr2ZEUHOC_7-df0e1zn-21" value="" style="rounded=0;whiteSpace=wrap;html=1;fillColor=#d5e8d4;strokeColor=#82b366;" vertex="1" parent="1">
          <mxGeometry x="-1500" y="-900" width="1500" height="900" as="geometry" />
        </mxCell>
        <mxCell id="3zr2ZEUHOC_7-df0e1zn-22" value="" style="rounded=0;whiteSpace=wrap;html=1;fillColor=#dae8fc;strokeColor=#6c8ebf;" vertex="1" parent="1">
          <mxGeometry x="1500" y="-900" width="1500" height="900" as="geometry" />
        </mxCell>
        <mxCell id="3zr2ZEUHOC_7-df0e1zn-23" value="" style="rounded=0;whiteSpace=wrap;html=1;fillColor=#dae8fc;strokeColor=#6c8ebf;" vertex="1" parent="1">
          <mxGeometry x="3000" y="-900" width="1500" height="900" as="geometry" />
        </mxCell>
        <mxCell id="3zr2ZEUHOC_7-df0e1zn-24" value="" style="rounded=0;whiteSpace=wrap;html=1;fillColor=#d5e8d4;strokeColor=#82b366;" vertex="1" parent="1">
          <mxGeometry y="-1800" width="1500" height="900" as="geometry" />
        </mxCell>
        <mxCell id="3zr2ZEUHOC_7-df0e1zn-25" value="" style="rounded=0;whiteSpace=wrap;html=1;fillColor=#f8cecc;strokeColor=#b85450;" vertex="1" parent="1">
          <mxGeometry y="1800" width="1500" height="900" as="geometry" />
        </mxCell>
        <mxCell id="3zr2ZEUHOC_7-df0e1zn-26" value="" style="rounded=0;whiteSpace=wrap;html=1;fillColor=#fff2cc;strokeColor=#d6b656;" vertex="1" parent="1">
          <mxGeometry y="-900" width="1500" height="900" as="geometry" />
        </mxCell>
        <mxCell id="3zr2ZEUHOC_7-df0e1zn-27" value="" style="rounded=0;whiteSpace=wrap;html=1;fillColor=#fff2cc;strokeColor=#d6b656;" vertex="1" parent="1">
          <mxGeometry y="900" width="1500" height="900" as="geometry" />
        </mxCell>
        <mxCell id="RN_BnQg6dUA1YGGxnZTN-1" value="" style="rounded=0;whiteSpace=wrap;html=1;fillColor=#f5f5f5;fontColor=#333333;strokeColor=#666666;" vertex="1" parent="1">
          <mxGeometry width="1500" height="30" as="geometry" />
        </mxCell>
        <mxCell id="RN_BnQg6dUA1YGGxnZTN-2" value="" style="rounded=0;whiteSpace=wrap;html=1;fillColor=#60a917;fontColor=#ffffff;strokeColor=#2D7600;" vertex="1" parent="1">
          <mxGeometry y="628" width="1500" height="270" as="geometry" />
        </mxCell>
        <mxCell id="RN_BnQg6dUA1YGGxnZTN-4" value="&lt;font style=&quot;font-size: 43px;&quot;&gt;Start&lt;/font&gt;" style="text;html=1;strokeColor=none;fillColor=none;align=center;verticalAlign=middle;whiteSpace=wrap;rounded=0;" vertex="1" parent="1">
          <mxGeometry x="620" y="385" width="260" height="130" as="geometry" />
        </mxCell>
        <mxCell id="Xfu8gr5Qg1PMiCMTAC91-1" value="" style="rounded=0;whiteSpace=wrap;html=1;" vertex="1" parent="1">
          <mxGeometry x="1502" y="628" width="270" height="60" as="geometry" />
        </mxCell>
        <mxCell id="Xfu8gr5Qg1PMiCMTAC91-2" value="" style="rounded=0;whiteSpace=wrap;html=1;" vertex="1" parent="1">
          <mxGeometry x="2115" y="630" width="270" height="60" as="geometry" />
        </mxCell>
        <mxCell id="Xfu8gr5Qg1PMiCMTAC91-3" value="" style="rounded=0;whiteSpace=wrap;html=1;rotation=90;" vertex="1" parent="1">
          <mxGeometry x="1810" y="734" width="270" height="60" as="geometry" />
        </mxCell>
        <mxCell id="Xfu8gr5Qg1PMiCMTAC91-4" value="" style="rounded=0;whiteSpace=wrap;html=1;" vertex="1" parent="1">
          <mxGeometry x="2115" y="359" width="270" height="60" as="geometry" />
        </mxCell>
        <mxCell id="PBtDgVB4cZCV1AWit740-1" value="" style="rounded=0;whiteSpace=wrap;html=1;" vertex="1" parent="1">
          <mxGeometry x="2620" y="568" width="270" height="60" as="geometry" />
        </mxCell>
        <mxCell id="PBtDgVB4cZCV1AWit740-2" value="" style="rounded=0;whiteSpace=wrap;html=1;rotation=90;" vertex="1" parent="1">
          <mxGeometry x="2455" y="463" width="270" height="60" as="geometry" />
        </mxCell>
        <mxCell id="PBtDgVB4cZCV1AWit740-7" value="" style="rounded=0;whiteSpace=wrap;html=1;" vertex="1" parent="1">
          <mxGeometry x="1704" y="200" width="270" height="60" as="geometry" />
        </mxCell>
        <mxCell id="PBtDgVB4cZCV1AWit740-18" value="" style="rounded=0;whiteSpace=wrap;html=1;" vertex="1" parent="1">
          <mxGeometry x="2730" y="200" width="270" height="60" as="geometry" />
        </mxCell>
        <mxCell id="PBtDgVB4cZCV1AWit740-19" value="" style="rounded=0;whiteSpace=wrap;html=1;" vertex="1" parent="1">
          <mxGeometry x="3000" y="200" width="130" height="60" as="geometry" />
        </mxCell>
        <mxCell id="NeB1sbwhIioVvzSh-SlQ-1" value="" style="rounded=0;whiteSpace=wrap;html=1;" vertex="1" parent="1">
          <mxGeometry x="3000" y="568" width="270" height="60" as="geometry" />
        </mxCell>
        <mxCell id="UbRH9VOPe7MbpPBr8Hs7-1" value="" style="rounded=0;whiteSpace=wrap;html=1;rotation=-90;" vertex="1" parent="1">
          <mxGeometry x="3372.5" y="735.5" width="275" height="60" as="geometry" />
        </mxCell>
        <mxCell id="UbRH9VOPe7MbpPBr8Hs7-2" value="" style="rounded=0;whiteSpace=wrap;html=1;rotation=-90;" vertex="1" parent="1">
          <mxGeometry x="3102.5" y="735.5" width="275" height="60" as="geometry" />
        </mxCell>
        <mxCell id="G5L303184SIJPTvHG_R4-1" value="" style="rounded=0;whiteSpace=wrap;html=1;rotation=90;" vertex="1" parent="1">
          <mxGeometry x="3375" y="403" width="270" height="60" as="geometry" />
        </mxCell>
        <mxCell id="E5430IPJKfSGy6aDIcNw-1" value="" style="rounded=0;whiteSpace=wrap;html=1;rotation=-180;" vertex="1" parent="1">
          <mxGeometry x="3480" y="568" width="270" height="60" as="geometry" />
        </mxCell>
        <mxCell id="E5430IPJKfSGy6aDIcNw-2" value="" style="rounded=0;whiteSpace=wrap;html=1;rotation=-180;" vertex="1" parent="1">
          <mxGeometry x="3000" y="260" width="270" height="60" as="geometry" />
        </mxCell>
        <mxCell id="CspxOQFqG0OaFHNXPNxV-1" value="" style="rounded=0;whiteSpace=wrap;html=1;rotation=-180;" vertex="1" parent="1">
          <mxGeometry x="3752" y="240" width="270" height="60" as="geometry" />
        </mxCell>
        <mxCell id="CspxOQFqG0OaFHNXPNxV-5" value="" style="rounded=0;whiteSpace=wrap;html=1;rotation=90;" vertex="1" parent="1">
          <mxGeometry x="3874.5" y="90.5" width="237" height="60" as="geometry" />
        </mxCell>
        <mxCell id="QcC5QYU9s6ef1L18K5V4-1" value="" style="rounded=0;whiteSpace=wrap;html=1;rotation=-180;" vertex="1" parent="1">
          <mxGeometry x="3870" y="570" width="270" height="60" as="geometry" />
        </mxCell>
        <mxCell id="cmaTMP66q9HHAn_NZCYf-1" value="" style="rounded=0;whiteSpace=wrap;html=1;rotation=-90;" vertex="1" parent="1">
          <mxGeometry x="3105" y="1005" width="270" height="60" as="geometry" />
        </mxCell>
        <mxCell id="cmaTMP66q9HHAn_NZCYf-2" value="" style="rounded=0;whiteSpace=wrap;html=1;rotation=-90;" vertex="1" parent="1">
          <mxGeometry x="3375" y="1005" width="270" height="60" as="geometry" />
        </mxCell>
        <mxCell id="hW6-UIlnqCfidYV8Csga-1" value="" style="rounded=0;whiteSpace=wrap;html=1;rotation=-180;" vertex="1" parent="1">
          <mxGeometry x="3210" y="1440" width="270" height="60" as="geometry" />
        </mxCell>
        <mxCell id="HHg2PhKaSeN_ka4HUfbG-1" value="" style="rounded=0;whiteSpace=wrap;html=1;rotation=-180;" vertex="1" parent="1">
          <mxGeometry x="3750" y="1290" width="270" height="60" as="geometry" />
        </mxCell>
        <mxCell id="HHg2PhKaSeN_ka4HUfbG-2" value="" style="rounded=0;whiteSpace=wrap;html=1;rotation=-180;" vertex="1" parent="1">
          <mxGeometry x="4230" y="1430" width="270" height="60" as="geometry" />
        </mxCell>
        <mxCell id="rokSQhSvmq5v2kdrJG3d-1" value="" style="rounded=0;whiteSpace=wrap;html=1;rotation=-90;" vertex="1" parent="1">
          <mxGeometry x="4063" y="1005" width="270" height="60" as="geometry" />
        </mxCell>
      </root>
    </mxGraphModel>
  </diagram>
</mxfile>
